<?xml version="1.0" encoding="utf-8"?>
<!-- Generator: Adobe Illustrator 27.7.0, SVG Export Plug-In . SVG Version: 6.00 Build 0)  -->
<svg version="1.1" id="Layer_1" xmlns="http://www.w3.org/2000/svg" xmlns:xlink="http://www.w3.org/1999/xlink" x="0px" y="0px"
	 viewBox="0 0 870.3 395.7" style="enable-background:new 0 0 870.3 395.7;" xml:space="preserve">
<style type="text/css">
	.st0{fill:#FFFFFF;}
	.st1{fill:#E3C57D;}
</style>
<path class="st0" d="M117.6,216.8H16.1V115.3c0-56,45.5-101.5,101.5-101.5c10.8,0,21.4,1.7,31.5,5L156,21v50.3h53.4l2.5,6.3
	c4.8,12,7.2,24.6,7.2,37.6C219.1,171.2,173.6,216.8,117.6,216.8z M36.1,196.8h81.5c6.3,0,12.5-0.7,18.4-2.1V91.4H90v-20h46V35.9
	c-6-1.4-12.2-2.1-18.4-2.1c-44.9,0-81.5,36.6-81.5,81.5V196.8z M156,91.4v95.8c25.6-13.7,43.1-40.8,43.1-71.9
	c0-8.2-1.2-16.2-3.6-23.9C195.5,91.4,156,91.4,156,91.4z"/>
<path class="st0" d="M269.7,127.7c-4.8-2.6-8.7-6.2-11.4-10.8c-2.8-4.6-4.2-9.8-4.2-15.7c0-5.8,1.4-11,4.2-15.7
	c2.8-4.6,6.6-8.2,11.4-10.8c4.8-2.6,10.3-3.9,16.3-3.9c5.1,0,9.7,0.9,13.8,2.7c4.1,1.8,7.6,4.4,10.4,7.7l-8.7,8.1
	c-4-4.6-8.9-6.9-14.8-6.9c-3.6,0-6.9,0.8-9.7,2.4c-2.9,1.6-5.1,3.8-6.7,6.7c-1.6,2.9-2.4,6.1-2.4,9.7s0.8,6.9,2.4,9.7
	c1.6,2.9,3.8,5.1,6.7,6.7c2.9,1.6,6.1,2.4,9.7,2.4c5.9,0,10.8-2.3,14.8-7l8.7,8.1c-2.8,3.4-6.3,6-10.4,7.8s-8.8,2.7-13.9,2.7
	C279.9,131.6,274.5,130.3,269.7,127.7z M321,71.8h13.6v58.8H321V71.8z M362.4,82.9h-18.8V71.8h51.2v11.1H376v47.7h-13.6V82.9
	L362.4,82.9z M431,109.8v20.8h-13.6v-21l-22.8-37.8H409L424.8,98l15.7-26.1h13.4L431,109.8z M485.7,127.7
	c-4.8-2.6-8.7-6.2-11.4-10.8c-2.8-4.6-4.2-9.8-4.2-15.7c0-5.8,1.4-11,4.2-15.7c2.8-4.6,6.6-8.2,11.4-10.8c4.8-2.6,10.3-3.9,16.3-3.9
	c5.1,0,9.7,0.9,13.8,2.7c4.1,1.8,7.6,4.4,10.4,7.7l-8.7,8.1c-4-4.6-8.9-6.9-14.8-6.9c-3.6,0-6.9,0.8-9.7,2.4
	c-2.9,1.6-5.1,3.8-6.7,6.7c-1.6,2.9-2.4,6.1-2.4,9.7s0.8,6.9,2.4,9.7c1.6,2.9,3.8,5.1,6.7,6.7c2.9,1.6,6.1,2.4,9.7,2.4
	c5.9,0,10.8-2.3,14.8-7l8.7,8.1c-2.8,3.4-6.3,6-10.4,7.8c-4.1,1.8-8.8,2.7-13.9,2.7C496,131.6,490.6,130.3,485.7,127.7z M591,71.8
	v58.8h-13.6v-24.1h-26.7v24.1h-13.6V71.8h13.6V95h26.7V71.8H591z M613.1,124.7c-4.7-4.6-7-11.3-7-19.9v-33h13.6v32.4
	c0,10.5,4.4,15.8,13.1,15.8c4.3,0,7.5-1.3,9.7-3.8s3.4-6.5,3.4-12V71.8h13.4v32.9c0,8.6-2.3,15.3-7,19.9c-4.7,4.6-11.2,7-19.6,7
	C624.4,131.6,617.8,129.3,613.1,124.7z M712,130.6l-11.3-16.4H700h-11.8v16.4h-13.6V71.8H700c5.2,0,9.7,0.9,13.6,2.6
	c3.8,1.7,6.8,4.2,8.9,7.4c2.1,3.2,3.1,7,3.1,11.3s-1,8.1-3.2,11.3c-2.1,3.2-5.1,5.6-8.9,7.3l13.2,18.9H712z M708.5,85.6
	c-2.1-1.8-5.2-2.6-9.3-2.6h-11.1v20.5h11.1c4.1,0,7.2-0.9,9.3-2.7c2.1-1.8,3.2-4.3,3.2-7.6C711.7,89.9,710.7,87.3,708.5,85.6z
	 M749.8,127.7c-4.8-2.6-8.7-6.2-11.4-10.8c-2.8-4.6-4.2-9.8-4.2-15.7c0-5.8,1.4-11,4.2-15.7c2.8-4.6,6.6-8.2,11.4-10.8
	c4.8-2.6,10.3-3.9,16.3-3.9c5.1,0,9.7,0.9,13.8,2.7c4.1,1.8,7.6,4.4,10.4,7.7l-8.7,8.1c-4-4.6-8.9-6.9-14.8-6.9
	c-3.6,0-6.9,0.8-9.7,2.4c-2.9,1.6-5.1,3.8-6.7,6.7c-1.6,2.9-2.4,6.1-2.4,9.7s0.8,6.9,2.4,9.7c1.6,2.9,3.8,5.1,6.7,6.7
	s6.1,2.4,9.7,2.4c5.9,0,10.8-2.3,14.8-7l8.7,8.1c-2.8,3.4-6.3,6-10.4,7.8c-4.1,1.8-8.8,2.7-13.9,2.7
	C760.1,131.6,754.7,130.3,749.8,127.7z M855.1,71.8v58.8h-13.6v-24.1h-26.7v24.1h-13.6V71.8h13.6V95h26.7V71.8H855.1z M263.6,212.7
	c-4.3-1.3-7.8-2.9-10.5-4.9l4.6-10.2c2.5,1.8,5.5,3.3,9,4.5c3.5,1.1,6.9,1.7,10.4,1.7c3.9,0,6.7-0.6,8.6-1.7
	c1.8-1.1,2.8-2.7,2.8-4.6c0-1.4-0.5-2.6-1.6-3.5s-2.5-1.7-4.2-2.2c-1.7-0.6-4-1.2-6.9-1.8c-4.5-1.1-8.1-2.1-11-3.2
	c-2.9-1.1-5.3-2.8-7.4-5.1c-2-2.4-3.1-5.5-3.1-9.4c0-3.4,0.9-6.5,2.8-9.3c1.8-2.8,4.6-5,8.4-6.6c3.7-1.6,8.3-2.4,13.6-2.4
	c3.8,0,7.4,0.4,11,1.3c3.6,0.9,6.7,2.2,9.4,3.9l-4.2,10.3c-5.4-3.1-10.9-4.6-16.3-4.6c-3.8,0-6.6,0.6-8.4,1.8s-2.7,2.9-2.7,4.9
	s1,3.5,3.2,4.5c2.1,1,5.3,1.9,9.6,2.9c4.5,1.1,8.1,2.1,11,3.2c2.9,1.1,5.3,2.7,7.3,5s3.1,5.4,3.1,9.3c0,3.4-0.9,6.4-2.8,9.2
	s-4.7,5-8.4,6.6c-3.8,1.6-8.3,2.4-13.7,2.4C272.5,214.6,268,214,263.6,212.7z M367,154.8v58.8h-13.6v-24.1h-26.7v24.1h-13.6v-58.8
	h13.6V178h26.7v-23.2H367z M428.1,202.7v10.9h-45.5v-58.8H427v10.9h-30.9v12.8h27.3v10.6h-27.3v13.6H428.1z M454.3,165.7v15.5h27.2
	v10.9h-27.2v21.4h-13.6v-58.8h44.4v10.9h-30.8V165.7z M509.6,165.7v15.5h27.2v10.9h-27.2v21.4H496v-58.8h44.4v10.9h-30.8
	L509.6,165.7L509.6,165.7z M551.4,154.8H565v58.8h-13.6V154.8z M626.1,202.7v10.9h-45.5v-58.8H625v10.9h-30.9v12.8h27.3v10.6h-27.3
	v13.6H626.1z M638.6,154.8h13.6v47.7h29.5v11.1h-43.1V154.8z M691,154.8h26.7c6.4,0,12,1.2,16.9,3.7c4.9,2.4,8.7,5.9,11.4,10.3
	c2.7,4.4,4.1,9.6,4.1,15.5s-1.4,11-4.1,15.5c-2.7,4.4-6.5,7.9-11.4,10.3c-4.9,2.4-10.5,3.7-16.9,3.7H691V154.8z M717.1,202.5
	c5.9,0,10.6-1.6,14.1-4.9c3.5-3.3,5.2-7.7,5.2-13.3s-1.8-10-5.2-13.3c-3.5-3.3-8.2-4.9-14.1-4.9h-12.4v36.5h12.4V202.5z"/>
<rect x="16.1" y="261.3" class="st1" width="839" height="4.3"/>
<g>
	<polygon class="st0" points="492.8,346.4 497.5,346.4 495.2,340.8 	"/>
	<path class="st0" d="M430.5,340.2h-2.8v5.1h2.8c1,0,1.8-0.2,2.3-0.7c0.5-0.4,0.8-1.1,0.8-1.9c0-0.8-0.3-1.5-0.8-1.9
		C432.3,340.5,431.5,340.2,430.5,340.2z"/>
	<path class="st0" d="M561.6,340.3h-3.1v9.1h3.1c1.5,0,2.6-0.4,3.5-1.2s1.3-1.9,1.3-3.3c0-1.4-0.4-2.5-1.3-3.3
		C564.2,340.7,563,340.3,561.6,340.3z"/>
	<path class="st0" d="M395,340.7c-0.7-0.4-1.5-0.6-2.4-0.6c-0.9,0-1.7,0.2-2.4,0.6c-0.7,0.4-1.2,1-1.6,1.7c-0.4,0.7-0.6,1.5-0.6,2.4
		s0.2,1.7,0.6,2.4c0.4,0.7,0.9,1.3,1.6,1.7c0.7,0.4,1.5,0.6,2.4,0.6c0.9,0,1.7-0.2,2.4-0.6c0.7-0.4,1.2-1,1.6-1.7
		c0.4-0.7,0.6-1.5,0.6-2.4s-0.2-1.7-0.6-2.4C396.3,341.7,395.7,341.1,395,340.7z"/>
	<path class="st0" d="M683.1,340.2h-2.8v5.1h2.8c1,0,1.8-0.2,2.3-0.7s0.8-1.1,0.8-1.9c0-0.8-0.3-1.5-0.8-1.9
		C684.9,340.5,684.1,340.2,683.1,340.2z"/>
	<path class="st0" d="M148.1,340.7c-0.7-0.4-1.5-0.6-2.4-0.6s-1.7,0.2-2.4,0.6c-0.7,0.4-1.2,1-1.6,1.7c-0.4,0.7-0.6,1.5-0.6,2.4
		s0.2,1.7,0.6,2.4c0.4,0.7,0.9,1.3,1.6,1.7c0.7,0.4,1.5,0.6,2.4,0.6s1.7-0.2,2.4-0.6c0.7-0.4,1.2-1,1.6-1.7c0.4-0.7,0.6-1.5,0.6-2.4
		s-0.2-1.7-0.6-2.4C149.4,341.7,148.8,341.1,148.1,340.7z"/>
	<path class="st0" d="M312.7,340.2H310v5.1h2.8c1,0,1.8-0.2,2.3-0.7c0.5-0.4,0.8-1.1,0.8-1.9c0-0.8-0.3-1.5-0.8-1.9
		C314.5,340.5,313.8,340.2,312.7,340.2z"/>
	<path class="st0" d="M624,340.7c-0.7-0.4-1.5-0.6-2.4-0.6c-0.9,0-1.7,0.2-2.4,0.6c-0.7,0.4-1.2,1-1.6,1.7c-0.4,0.7-0.6,1.5-0.6,2.4
		s0.2,1.7,0.6,2.4c0.4,0.7,0.9,1.3,1.6,1.7c0.7,0.4,1.5,0.6,2.4,0.6c0.9,0,1.7-0.2,2.4-0.6c0.7-0.4,1.2-1,1.6-1.7
		c0.4-0.7,0.6-1.5,0.6-2.4s-0.2-1.7-0.6-2.4C625.3,341.7,624.7,341.1,624,340.7z"/>
	<path class="st0" d="M16,308.6v72.5h839v-72.5H16z M829,337.5l-0.7,9.6h-2.6l-0.7-9.6H829z M216.4,337.5l-0.7,9.6h-2.6l-0.7-9.6
		H216.4z M60.2,352.2h-3.7l-3.2-10l-3.3,10h-3.6l-4.8-14.7H45l3.3,10.3l3.5-10.3H55l3.4,10.4l3.4-10.4H65L60.2,352.2z M85.8,352.2
		H74.4v-14.7h11.1v2.7h-7.7v3.2h6.8v2.6h-6.8v3.4h8V352.2z M106.8,352.2H96.1v-14.7h3.4v11.9h7.4V352.2z M119.2,347.3
		c0.4,0.7,1,1.3,1.7,1.7c0.7,0.4,1.5,0.6,2.4,0.6c1.5,0,2.7-0.6,3.7-1.7l2.2,2c-0.7,0.9-1.6,1.5-2.6,2c-1,0.4-2.2,0.7-3.5,0.7
		c-1.5,0-2.9-0.3-4.1-1s-2.2-1.6-2.9-2.7s-1-2.5-1-3.9s0.3-2.8,1-3.9s1.6-2.1,2.9-2.7s2.6-1,4.1-1c1.3,0,2.4,0.2,3.5,0.7
		c1,0.4,1.9,1.1,2.6,1.9l-2.2,2c-1-1.1-2.2-1.7-3.7-1.7c-0.9,0-1.7,0.2-2.4,0.6c-0.7,0.4-1.3,1-1.7,1.7c-0.4,0.7-0.6,1.5-0.6,2.4
		S118.8,346.5,119.2,347.3z M152.8,348.7c-0.7,1.2-1.7,2.1-2.9,2.7c-1.2,0.7-2.6,1-4.1,1s-2.9-0.3-4.1-1c-1.2-0.7-2.2-1.6-2.9-2.7
		c-0.7-1.2-1-2.5-1-3.9c0-1.4,0.3-2.7,1-3.9c0.7-1.2,1.7-2.1,2.9-2.7s2.6-1,4.1-1s2.9,0.3,4.1,1c1.2,0.7,2.2,1.6,2.9,2.7
		c0.7,1.2,1,2.5,1,3.9C153.8,346.3,153.5,347.6,152.8,348.7z M177.3,352.2l0-8.8l-4.3,7.3h-1.5l-4.3-7.1v8.6h-3.2v-14.7h2.8l5.5,9.1
		l5.4-9.1h2.8l0,14.7H177.3z M202.9,352.2h-11.4v-14.7h11.1v2.7h-7.7v3.2h6.8v2.6h-6.8v3.4h8V352.2z M215.9,351.8
		c-0.4,0.4-0.9,0.6-1.4,0.6c-0.6,0-1.1-0.2-1.4-0.6c-0.4-0.4-0.6-0.8-0.6-1.4c0-0.5,0.2-1,0.6-1.3c0.4-0.4,0.9-0.5,1.4-0.5
		s1.1,0.2,1.4,0.5c0.4,0.4,0.6,0.8,0.6,1.3C216.5,351,216.3,351.4,215.9,351.8z M257.6,352.2H254l-3.2-10l-3.3,10h-3.6l-4.8-14.7
		h3.5l3.3,10.3l3.5-10.3h3.1l3.4,10.4l3.4-10.4h3.3L257.6,352.2z M283.3,352.2h-11.4v-14.7H283v2.7h-7.7v3.2h6.8v2.6h-6.8v3.4h8
		V352.2z M296.5,339.3c-0.1,0.3-0.2,0.7-0.4,1.3l-1.2,3h-2.1l0.9-3.3c-0.4-0.2-0.6-0.4-0.8-0.7c-0.2-0.3-0.3-0.7-0.3-1.1
		c0-0.6,0.2-1.1,0.6-1.5c0.4-0.4,0.9-0.6,1.5-0.6s1.1,0.2,1.4,0.6c0.4,0.4,0.6,0.9,0.6,1.5C296.6,338.7,296.5,339,296.5,339.3z
		 M315.9,352.2l-2.8-4.1h-0.2h-3v4.1h-3.4v-14.7h6.4c1.3,0,2.4,0.2,3.4,0.7c1,0.4,1.7,1,2.2,1.8s0.8,1.7,0.8,2.8s-0.3,2-0.8,2.8
		s-1.3,1.4-2.2,1.8l3.3,4.7H315.9z M340.9,352.2h-11.4v-14.7h11.1v2.7h-7.7v3.2h6.8v2.6h-6.8v3.4h8V352.2z M375,350.2
		c-0.5,0.7-1.2,1.2-2.1,1.6c-0.9,0.4-2.1,0.6-3.4,0.6c-1.2,0-2.3-0.2-3.4-0.5c-1.1-0.3-2-0.7-2.6-1.2l1.2-2.6
		c0.6,0.5,1.4,0.8,2.2,1.1c0.9,0.3,1.7,0.4,2.6,0.4c1,0,1.7-0.1,2.1-0.4s0.7-0.7,0.7-1.1c0-0.3-0.1-0.6-0.4-0.9
		c-0.3-0.2-0.6-0.4-1-0.6c-0.4-0.1-1-0.3-1.7-0.5c-1.1-0.3-2-0.5-2.8-0.8c-0.7-0.3-1.3-0.7-1.8-1.3c-0.5-0.6-0.8-1.4-0.8-2.4
		c0-0.9,0.2-1.6,0.7-2.3c0.5-0.7,1.2-1.2,2.1-1.6c0.9-0.4,2.1-0.6,3.4-0.6c0.9,0,1.9,0.1,2.8,0.3c0.9,0.2,1.7,0.5,2.4,1l-1,2.6
		c-1.4-0.8-2.7-1.2-4.1-1.2c-1,0-1.7,0.2-2.1,0.5s-0.7,0.7-0.7,1.2s0.3,0.9,0.8,1.1c0.5,0.2,1.3,0.5,2.4,0.7c1.1,0.3,2,0.5,2.8,0.8
		c0.7,0.3,1.3,0.7,1.8,1.3c0.5,0.6,0.8,1.4,0.8,2.3C375.7,348.7,375.5,349.5,375,350.2z M399.7,348.7c-0.7,1.2-1.7,2.1-2.9,2.7
		c-1.2,0.7-2.6,1-4.1,1c-1.5,0-2.9-0.3-4.1-1c-1.2-0.7-2.2-1.6-2.9-2.7c-0.7-1.2-1-2.5-1-3.9c0-1.4,0.3-2.7,1-3.9
		c0.7-1.2,1.7-2.1,2.9-2.7s2.6-1,4.1-1c1.5,0,2.9,0.3,4.1,1c1.2,0.7,2.2,1.6,2.9,2.7c0.7,1.2,1,2.5,1,3.9
		C400.7,346.3,400.4,347.6,399.7,348.7z M436.3,345.6c-0.5,0.8-1.3,1.4-2.2,1.8s-2.1,0.6-3.4,0.6h-3v4.1h-3.4v-14.7h6.4
		c1.3,0,2.4,0.2,3.4,0.7s1.7,1,2.2,1.8s0.8,1.7,0.8,2.8C437.1,343.9,436.8,344.8,436.3,345.6z M457.8,352.2H447v-14.7h3.4v11.9h7.4
		V352.2z M478.6,352.2h-11.4v-14.7h11.1v2.7h-7.7v3.2h6.8v2.6h-6.8v3.4h8V352.2z M499.9,352.2l-1.3-3.2h-6.8l-1.3,3.2h-3.5l6.6-14.7
		h3.4l6.6,14.7H499.9z M522.9,350.2c-0.5,0.7-1.2,1.2-2.1,1.6c-0.9,0.4-2.1,0.6-3.4,0.6c-1.2,0-2.3-0.2-3.4-0.5
		c-1.1-0.3-2-0.7-2.6-1.2l1.2-2.6c0.6,0.5,1.4,0.8,2.2,1.1c0.9,0.3,1.7,0.4,2.6,0.4c1,0,1.7-0.1,2.1-0.4s0.7-0.7,0.7-1.1
		c0-0.3-0.1-0.6-0.4-0.9c-0.3-0.2-0.6-0.4-1-0.6c-0.4-0.1-1-0.3-1.7-0.5c-1.1-0.3-2-0.5-2.8-0.8c-0.7-0.3-1.3-0.7-1.8-1.3
		c-0.5-0.6-0.8-1.4-0.8-2.4c0-0.9,0.2-1.6,0.7-2.3c0.5-0.7,1.2-1.2,2.1-1.6c0.9-0.4,2.1-0.6,3.4-0.6c0.9,0,1.9,0.1,2.8,0.3
		c0.9,0.2,1.7,0.5,2.4,1l-1,2.6c-1.4-0.8-2.7-1.2-4.1-1.2c-1,0-1.7,0.2-2.1,0.5s-0.7,0.7-0.7,1.2s0.3,0.9,0.8,1.1
		c0.5,0.2,1.3,0.5,2.4,0.7c1.1,0.3,2,0.5,2.8,0.8c0.7,0.3,1.3,0.7,1.8,1.3c0.5,0.6,0.8,1.4,0.8,2.3
		C523.6,348.7,523.3,349.5,522.9,350.2z M544.8,352.2h-11.4v-14.7h11.1v2.7h-7.7v3.2h6.8v2.6h-6.8v3.4h8V352.2z M568.8,348.7
		c-0.7,1.1-1.6,2-2.9,2.6c-1.2,0.6-2.6,0.9-4.2,0.9h-6.7v-14.7h6.7c1.6,0,3,0.3,4.2,0.9c1.2,0.6,2.2,1.5,2.9,2.6
		c0.7,1.1,1,2.4,1,3.9C569.9,346.3,569.5,347.6,568.8,348.7z M600.5,347v5.2h-3.4v-5.2l-5.7-9.5h3.6l3.9,6.5l3.9-6.5h3.3L600.5,347z
		 M628.7,348.7c-0.7,1.2-1.7,2.1-2.9,2.7c-1.2,0.7-2.6,1-4.1,1c-1.5,0-2.9-0.3-4.1-1c-1.2-0.7-2.2-1.6-2.9-2.7c-0.7-1.2-1-2.5-1-3.9
		c0-1.4,0.3-2.7,1-3.9c0.7-1.2,1.7-2.1,2.9-2.7s2.6-1,4.1-1c1.5,0,2.9,0.3,4.1,1c1.2,0.7,2.2,1.6,2.9,2.7c0.7,1.2,1,2.5,1,3.9
		C629.7,346.3,629.4,347.6,628.7,348.7z M653,345.7c0,2.2-0.6,3.8-1.8,5s-2.8,1.7-4.9,1.7c-2.1,0-3.7-0.6-4.9-1.7s-1.8-2.8-1.8-5
		v-8.2h3.4v8.1c0,2.6,1.1,3.9,3.3,3.9c1.1,0,1.9-0.3,2.4-1c0.6-0.6,0.8-1.6,0.8-3v-8.1h3.4V345.7z M666.8,339.3
		c-0.1,0.3-0.2,0.7-0.4,1.3l-1.2,3h-2.1l0.9-3.3c-0.3-0.2-0.6-0.4-0.8-0.7c-0.2-0.3-0.3-0.7-0.3-1.1c0-0.6,0.2-1.1,0.6-1.5
		s0.9-0.6,1.5-0.6c0.6,0,1.1,0.2,1.4,0.6s0.6,0.9,0.6,1.5C666.9,338.7,666.9,339,666.8,339.3z M686.3,352.2l-2.8-4.1h-0.2h-3v4.1
		h-3.4v-14.7h6.4c1.3,0,2.4,0.2,3.4,0.7s1.7,1,2.2,1.8s0.8,1.7,0.8,2.8s-0.3,2-0.8,2.8c-0.5,0.8-1.3,1.4-2.2,1.8l3.3,4.7H686.3z
		 M711.3,352.2h-11.4v-14.7H711v2.7h-7.7v3.2h6.8v2.6h-6.8v3.4h8V352.2z M748.5,352.2h-3.4v-6h-6.7v6H735v-14.7h3.4v5.8h6.7v-5.8
		h3.4V352.2z M770.9,352.2h-11.4v-14.7h11.1v2.7h-7.7v3.2h6.8v2.6h-6.8v3.4h8V352.2z M790.5,352.2l-2.8-4.1h-0.2h-3v4.1h-3.4v-14.7
		h6.4c1.3,0,2.4,0.2,3.4,0.7s1.7,1,2.2,1.8s0.8,1.7,0.8,2.8s-0.3,2-0.8,2.8c-0.5,0.8-1.3,1.4-2.2,1.8l3.3,4.7H790.5z M815.5,352.2
		h-11.4v-14.7h11.1v2.7h-7.7v3.2h6.8v2.6h-6.8v3.4h8V352.2z M828.5,351.8c-0.4,0.4-0.9,0.6-1.4,0.6s-1.1-0.2-1.4-0.6
		s-0.6-0.8-0.6-1.4c0-0.5,0.2-1,0.6-1.3c0.4-0.4,0.9-0.5,1.4-0.5s1.1,0.2,1.4,0.5c0.4,0.4,0.6,0.8,0.6,1.3
		C829.1,351,828.9,351.4,828.5,351.8z"/>
	<path class="st0" d="M787.3,340.2h-2.8v5.1h2.8c1,0,1.8-0.2,2.3-0.7s0.8-1.1,0.8-1.9c0-0.8-0.3-1.5-0.8-1.9
		C789.1,340.5,788.3,340.2,787.3,340.2z"/>
</g>
</svg>
